;Layer: Drill PTH
;EasyEDA v6.3.53, 2020-06-17T23:21:06+02:00
;04ce8127e00047ebb4670b429beeeb49,c5fe026039d2484e9a32019ccd8c5756,10
;Gerber Generator version 0.2
M48
METRIC,LZ,000.000
;Holesize 1 = 0.305 METRIC
T01C0.305
;Holesize 2 = 0.702 METRIC
T02C0.702
;Holesize 3 = 1.000 METRIC
T03C1.000
;Holesize 4 = 1.501 METRIC
T04C1.501
%
G05
G90
T01
X+127154Y+081721
X+141124Y+020761
X+099214Y+022031
T02
X+063654Y+072831
X+063654Y+062671
X+020474Y+015681
X+020474Y+005521
X+030634Y+053781
X+030634Y+043621
X+020474Y+091881
X+020474Y+081721
X+039524Y+091881
X+039524Y+081721
X+058574Y+091881
X+058574Y+081721
X+077624Y+091881
X+077624Y+081721
X+096674Y+091881
X+096674Y+081721
X+115724Y+091881
X+115724Y+081721
X+134774Y+091881
X+134774Y+081721
X+153824Y+091881
X+153824Y+081721
X+172874Y+091881
X+172874Y+081721
X+191924Y+091881
X+191924Y+081721
X+210974Y+091881
X+210974Y+081721
X+230024Y+091881
X+230024Y+081721
X+251614Y+091881
X+251614Y+081721
X+003964Y+072831
X+003964Y+062671
X+025554Y+072831
X+025554Y+062671
X+044604Y+072831
X+044604Y+062671
X+082704Y+072831
X+082704Y+062671
X+101754Y+072831
X+101754Y+062671
X+120804Y+072831
X+120804Y+062671
X+139854Y+072831
X+139854Y+062671
X+158904Y+072831
X+158904Y+062671
X+177954Y+072831
X+177954Y+062671
X+197004Y+072831
X+197004Y+062671
X+216054Y+072831
X+216054Y+062671
X+235104Y+072831
X+235104Y+062671
X+254154Y+072831
X+254154Y+062671
X+006504Y+053781
X+006504Y+043621
X+049684Y+053781
X+049684Y+043621
X+068734Y+053781
X+068734Y+043621
X+087784Y+053781
X+087784Y+043621
X+106834Y+053781
X+106834Y+043621
X+125884Y+053781
X+125884Y+043621
X+144934Y+053781
X+144934Y+043621
X+163984Y+053781
X+163984Y+043621
X+183034Y+053781
X+183034Y+043621
X+202084Y+053781
X+202084Y+043621
X+221134Y+053781
X+221134Y+043621
X+247804Y+053781
X+247804Y+043621
X+003964Y+034731
X+003964Y+024571
X+025554Y+034731
X+025554Y+024571
X+063654Y+034731
X+063654Y+024571
X+082704Y+034731
X+082704Y+024571
X+101754Y+034731
X+101754Y+024571
X+120804Y+034731
X+120804Y+024571
X+139854Y+034731
X+139854Y+024571
X+158904Y+034731
X+158904Y+024571
X+177954Y+034731
X+177954Y+024571
X+197004Y+034731
X+197004Y+024571
X+216054Y+034731
X+216054Y+024571
X+235104Y+034731
X+235104Y+024571
X+254154Y+034731
X+254154Y+024571
X+042064Y+015681
X+042064Y+005521
X+045874Y+015681
X+045874Y+005521
X+071274Y+015681
X+071274Y+005521
X+091594Y+013141
X+091594Y+002981
X+189384Y+015681
X+189384Y+005521
X+194464Y+015681
X+194464Y+005521
X+213514Y+015681
X+213514Y+005521
X+235104Y+015681
X+235104Y+005521
X+044604Y+034731
X+044604Y+024571
X+254154Y+015681
X+254154Y+005521
X+167794Y+013141
X+167794Y+002981
T03
X+163524Y+017951
X+165524Y+015951
X+165524Y+017951
X+167524Y+015951
X+167524Y+017951
X+169524Y+015951
X+169524Y+017951
X+130694Y+015141
X+128694Y+013141
X+130694Y+013141
X+128694Y+011141
X+130694Y+011141
X+095864Y+017951
X+093864Y+017951
X+093864Y+015951
X+091864Y+017951
X+091864Y+015951
X+089864Y+017951
X+089864Y+015951
T04
X+025808Y+089341G85X+025808Y+089341
X+032158Y+091881G85X+032158Y+091881
X+044858Y+089341G85X+044858Y+089341
X+051208Y+091881G85X+051208Y+091881
X+063908Y+089341G85X+063908Y+089341
X+070258Y+091881G85X+070258Y+091881
X+082958Y+089341G85X+082958Y+089341
X+089308Y+091881G85X+089308Y+091881
X+102008Y+089341G85X+102008Y+089341
X+108358Y+091881G85X+108358Y+091881
X+121058Y+089341G85X+121058Y+089341
X+127408Y+091881G85X+127408Y+091881
X+140108Y+089341G85X+140108Y+089341
X+146458Y+091881G85X+146458Y+091881
X+159158Y+089341G85X+159158Y+089341
X+165508Y+091881G85X+165508Y+091881
X+178208Y+089341G85X+178208Y+089341
X+184558Y+091881G85X+184558Y+091881
X+197258Y+089341G85X+197258Y+089341
X+203608Y+091881G85X+203608Y+091881
X+216308Y+089341G85X+216308Y+089341
X+222658Y+091881G85X+222658Y+091881
X+235358Y+089341G85X+235358Y+089341
X+241708Y+091881G85X+241708Y+091881
X+256821Y+089341G85X+256821Y+089341
X+263171Y+091881G85X+263171Y+091881
X+009171Y+070291G85X+009171Y+070291
X+015521Y+072831G85X+015521Y+072831
X+030634Y+070291G85X+030634Y+070291
X+036984Y+072831G85X+036984Y+072831
X+049684Y+070291G85X+049684Y+070291
X+056034Y+072831G85X+056034Y+072831
X+068734Y+070291G85X+068734Y+070291
X+075084Y+072831G85X+075084Y+072831
X+087784Y+070291G85X+087784Y+070291
X+094134Y+072831G85X+094134Y+072831
X+106834Y+070291G85X+106834Y+070291
X+113184Y+072831G85X+113184Y+072831
X+125884Y+070291G85X+125884Y+070291
X+132234Y+072831G85X+132234Y+072831
X+144934Y+070291G85X+144934Y+070291
X+151284Y+072831G85X+151284Y+072831
X+163984Y+070291G85X+163984Y+070291
X+170334Y+072831G85X+170334Y+072831
X+183034Y+070291G85X+183034Y+070291
X+189384Y+072831G85X+189384Y+072831
X+202084Y+070291G85X+202084Y+070291
X+208434Y+072831G85X+208434Y+072831
X+221134Y+070291G85X+221134Y+070291
X+227484Y+072831G85X+227484Y+072831
X+240184Y+070291G85X+240184Y+070291
X+246534Y+072831G85X+246534Y+072831
X+259234Y+070291G85X+259234Y+070291
X+265584Y+072831G85X+265584Y+072831
X+011584Y+051368G85X+011584Y+051368
X+017934Y+053908G85X+017934Y+053908
X+035333Y+051241G85X+035333Y+051241
X+041683Y+053781G85X+041683Y+053781
X+054383Y+051241G85X+054383Y+051241
X+060733Y+053781G85X+060733Y+053781
X+073433Y+051241G85X+073433Y+051241
X+079783Y+053781G85X+079783Y+053781
X+092483Y+051241G85X+092483Y+051241
X+098833Y+053781G85X+098833Y+053781
X+111533Y+051241G85X+111533Y+051241
X+117883Y+053781G85X+117883Y+053781
X+130583Y+051241G85X+130583Y+051241
X+136933Y+053781G85X+136933Y+053781
X+149633Y+051241G85X+149633Y+051241
X+155983Y+053781G85X+155983Y+053781
X+168683Y+051241G85X+168683Y+051241
X+175033Y+053781G85X+175033Y+053781
X+187733Y+051241G85X+187733Y+051241
X+194083Y+053781G85X+194083Y+053781
X+206783Y+051241G85X+206783Y+051241
X+213133Y+053781G85X+213133Y+053781
X+225833Y+051241G85X+225833Y+051241
X+232183Y+053781G85X+232183Y+053781
X+252122Y+051241G85X+252122Y+051241
X+258472Y+053781G85X+258472Y+053781
X+009171Y+032191G85X+009171Y+032191
X+015521Y+034731G85X+015521Y+034731
X+030634Y+032191G85X+030634Y+032191
X+036984Y+034731G85X+036984Y+034731
X+049684Y+032191G85X+049684Y+032191
X+056034Y+034731G85X+056034Y+034731
X+068734Y+032191G85X+068734Y+032191
X+075084Y+034731G85X+075084Y+034731
X+087784Y+032191G85X+087784Y+032191
X+094134Y+034731G85X+094134Y+034731
X+106834Y+032191G85X+106834Y+032191
X+113184Y+034731G85X+113184Y+034731
X+125884Y+032191G85X+125884Y+032191
X+132234Y+034731G85X+132234Y+034731
X+144934Y+032191G85X+144934Y+032191
X+151284Y+034731G85X+151284Y+034731
X+163984Y+032191G85X+163984Y+032191
X+170334Y+034731G85X+170334Y+034731
X+183034Y+032191G85X+183034Y+032191
X+189384Y+034731G85X+189384Y+034731
X+202084Y+032191G85X+202084Y+032191
X+208434Y+034731G85X+208434Y+034731
X+221134Y+032191G85X+221134Y+032191
X+227484Y+034731G85X+227484Y+034731
X+240184Y+032191G85X+240184Y+032191
X+246534Y+034731G85X+246534Y+034731
X+259234Y+032191G85X+259234Y+032191
X+265584Y+034731G85X+265584Y+034731
X+006758Y+013141G85X+006758Y+013141
X+013108Y+015681G85X+013108Y+015681
X+028221Y+013141G85X+028221Y+013141
X+034571Y+015681G85X+034571Y+015681
X+052224Y+013141G85X+052224Y+013141
X+058574Y+015681G85X+058574Y+015681
X+075846Y+013141G85X+075846Y+013141
X+082196Y+015681G85X+082196Y+015681
X+106834Y+013141G85X+106834Y+013141
X+113184Y+015681G85X+113184Y+015681
X+144934Y+013141G85X+144934Y+013141
X+151284Y+015681G85X+151284Y+015681
X+175795Y+013141G85X+175795Y+013141
X+182145Y+015681G85X+182145Y+015681
X+199671Y+013141G85X+199671Y+013141
X+206021Y+015681G85X+206021Y+015681
X+221134Y+013141G85X+221134Y+013141
X+227484Y+015681G85X+227484Y+015681
X+240184Y+013141G85X+240184Y+013141
X+246534Y+015681G85X+246534Y+015681
X+259234Y+013141G85X+259234Y+013141
X+265584Y+015681G85X+265584Y+015681
M30
