;Layer: Drill NPTH
;EasyEDA v6.3.53, 2020-06-17T23:21:06+02:00
;04ce8127e00047ebb4670b429beeeb49,c5fe026039d2484e9a32019ccd8c5756,10
;Gerber Generator version 0.2
M48
METRIC,LZ,000.000
;Holesize 1 = 4.101 METRIC
T01C4.101
%
G05
G90
T01
X+029618Y+086801
X+048668Y+086801
X+067718Y+086801
X+086768Y+086801
X+105818Y+086801
X+124868Y+086801
X+143918Y+086801
X+162968Y+086801
X+182018Y+086801
X+201068Y+086801
X+220118Y+086801
X+239168Y+086801
X+260631Y+086801
X+012981Y+067751
X+034444Y+067751
X+053494Y+067751
X+072544Y+067751
X+091594Y+067751
X+110644Y+067751
X+129694Y+067751
X+148744Y+067751
X+167794Y+067751
X+186844Y+067751
X+205894Y+067751
X+224944Y+067751
X+243994Y+067751
X+263044Y+067751
X+015394Y+048828
X+039143Y+048701
X+058193Y+048701
X+077243Y+048701
X+096293Y+048701
X+115343Y+048701
X+134393Y+048701
X+153443Y+048701
X+172493Y+048701
X+191543Y+048701
X+210593Y+048701
X+229643Y+048701
X+255932Y+048701
X+012981Y+029651
X+034444Y+029651
X+053494Y+029651
X+072544Y+029651
X+091594Y+029651
X+110644Y+029651
X+129694Y+029651
X+148744Y+029651
X+167794Y+029651
X+186844Y+029651
X+205894Y+029651
X+224944Y+029651
X+243994Y+029651
X+263044Y+029651
X+010568Y+010601
X+032031Y+010601
X+056034Y+010601
X+079656Y+010601
X+110644Y+010601
X+148744Y+010601
X+179605Y+010601
X+203481Y+010601
X+224944Y+010601
X+243994Y+010601
X+263044Y+010601
M30
