G04 Layer: TopLayer*
G04 EasyEDA v6.3.53, 2020-06-17T23:21:06+02:00*
G04 04ce8127e00047ebb4670b429beeeb49,c5fe026039d2484e9a32019ccd8c5756,10*
G04 Gerber Generator version 0.2*
G04 Scale: 100 percent, Rotated: No, Reflected: No *
G04 Dimensions in millimeters *
G04 leading zeros omitted , absolute positions ,3 integer and 3 decimal *
%FSLAX33Y33*%
%MOMM*%
G90*
G71D02*

%ADD10C,0.254000*%
%ADD11C,0.700024*%
%ADD12C,0.699999*%
%ADD13C,1.799996*%
%ADD15C,2.540000*%
%ADD16C,1.699260*%
%ADD17R,1.699260X1.699260*%

%LPD*%
G54D10*
G01X251614Y91881D02*
G01X251981Y91702D01*
G01X254342Y89341D01*
G01X256821Y89341D01*
G01X230024Y91881D02*
G01X232564Y89341D01*
G01X235358Y89341D01*
G01X210974Y91881D02*
G01X213514Y89341D01*
G01X216308Y89341D01*
G01X191924Y91881D02*
G01X194464Y89341D01*
G01X197258Y89341D01*
G01X172874Y91881D02*
G01X175414Y89341D01*
G01X178208Y89341D01*
G01X153824Y91881D02*
G01X156364Y89341D01*
G01X159158Y89341D01*
G01X134774Y91881D02*
G01X137314Y89341D01*
G01X140108Y89341D01*
G01X115724Y91881D02*
G01X118264Y89341D01*
G01X121058Y89341D01*
G01X96674Y91881D02*
G01X99214Y89341D01*
G01X102008Y89341D01*
G01X77561Y91881D02*
G01X80164Y89341D01*
G01X82958Y89341D01*
G01X58574Y91881D02*
G01X61114Y89341D01*
G01X63908Y89341D01*
G01X39524Y91881D02*
G01X42064Y89341D01*
G01X44858Y89341D01*
G01X20474Y91881D02*
G01X23014Y89341D01*
G01X25808Y89341D01*
G01X89864Y15950D02*
G01X81086Y7172D01*
G01X21363Y7172D01*
G01X12981Y15554D01*
G01X12981Y15681D01*
G01X13108Y15681D01*
G01X128693Y11142D02*
G01X128663Y11109D01*
G01X125249Y11109D01*
G01X120804Y15554D01*
G01X120804Y24571D01*
G01X130695Y11142D02*
G01X132234Y9600D01*
G01X132234Y5521D01*
G01X141124Y20761D02*
G01X133504Y13141D01*
G01X130694Y13141D01*
G01X42064Y15681D02*
G01X39524Y13141D01*
G01X28221Y13141D01*
G01X45874Y15681D02*
G01X48414Y13141D01*
G01X52224Y13141D01*
G01X71274Y15681D02*
G01X73814Y13141D01*
G01X75846Y13141D01*
G01X167524Y15951D02*
G01X175414Y8061D01*
G01X207164Y8061D01*
G01X208434Y9331D01*
G01X208434Y13141D01*
G01X206021Y15554D01*
G01X206021Y15681D01*
G01X165523Y17952D02*
G01X165508Y21523D01*
G01X166016Y22031D01*
G01X180494Y22031D01*
G01X181764Y20761D01*
G01X202084Y20761D01*
G01X203354Y19491D01*
G01X221134Y19491D01*
G01X224944Y15681D01*
G01X227484Y15681D01*
G01X167524Y17951D02*
G01X167524Y19221D01*
G01X169064Y20761D01*
G01X179224Y20761D01*
G01X182145Y17840D01*
G01X182145Y15681D01*
G01X6758Y13141D02*
G01X13108Y19491D01*
G01X15394Y19491D01*
G01X19204Y15681D01*
G01X20474Y15681D01*
G01X89864Y17951D02*
G01X36841Y17951D01*
G01X34571Y15681D01*
G01X93864Y15951D02*
G01X95404Y14411D01*
G01X99214Y14411D01*
G01X100484Y15681D01*
G01X100484Y20761D01*
G01X99214Y22031D01*
G01X167794Y2981D02*
G01X165254Y5521D01*
G01X175795Y13141D02*
G01X186844Y13141D01*
G01X189384Y15681D01*
G01X91594Y2981D02*
G01X89054Y5521D01*
G01X189384Y5521D02*
G01X170334Y5521D01*
G01X194464Y15681D02*
G01X197131Y15681D01*
G01X199671Y13141D01*
G01X213514Y15681D02*
G01X218594Y15681D01*
G01X221134Y13141D01*
G01X235104Y15681D02*
G01X237644Y15681D01*
G01X240184Y13141D01*
G01X254154Y15681D02*
G01X256694Y15681D01*
G01X259234Y13141D01*
G01X247804Y53781D02*
G01X249582Y53781D01*
G01X252122Y51241D01*
G01X221134Y53781D02*
G01X223293Y53781D01*
G01X225833Y51241D01*
G01X202084Y53781D02*
G01X204243Y53781D01*
G01X206783Y51241D01*
G01X183034Y53781D02*
G01X185193Y53781D01*
G01X187733Y51241D01*
G01X163984Y53781D02*
G01X166143Y53781D01*
G01X168683Y51241D01*
G01X144934Y53781D02*
G01X147093Y53781D01*
G01X149633Y51241D01*
G01X125884Y53781D02*
G01X128043Y53781D01*
G01X130583Y51241D01*
G01X106834Y53781D02*
G01X108993Y53781D01*
G01X111533Y51241D01*
G01X87784Y53781D02*
G01X89943Y53781D01*
G01X92483Y51241D01*
G01X68734Y53781D02*
G01X70893Y53781D01*
G01X73433Y51241D01*
G01X49684Y53781D02*
G01X51843Y53781D01*
G01X54383Y51241D01*
G01X30634Y53781D02*
G01X32793Y53781D01*
G01X35333Y51241D01*
G01X6504Y53781D02*
G01X9171Y53781D01*
G01X11584Y51368D01*
G01X3964Y34731D02*
G01X6631Y34731D01*
G01X9171Y32191D01*
G01X25554Y34731D02*
G01X28094Y34731D01*
G01X30634Y32191D01*
G01X44604Y34731D02*
G01X47144Y34731D01*
G01X49684Y32191D01*
G01X63654Y34731D02*
G01X66194Y34731D01*
G01X68734Y32191D01*
G01X82704Y34731D02*
G01X85244Y34731D01*
G01X87784Y32191D01*
G01X101754Y34731D02*
G01X104294Y34731D01*
G01X106834Y32191D01*
G01X120804Y34731D02*
G01X123344Y34731D01*
G01X125884Y32191D01*
G01X139854Y34731D02*
G01X142394Y34731D01*
G01X144934Y32191D01*
G01X158904Y34731D02*
G01X161444Y34731D01*
G01X163984Y32191D01*
G01X177954Y34731D02*
G01X180494Y34731D01*
G01X183034Y32191D01*
G01X197004Y34731D02*
G01X199544Y34731D01*
G01X202084Y32191D01*
G01X216054Y34731D02*
G01X218594Y34731D01*
G01X221134Y32191D01*
G01X235104Y34731D02*
G01X237644Y34731D01*
G01X240184Y32191D01*
G01X254154Y34731D02*
G01X256694Y34731D01*
G01X259234Y32191D01*
G01X254154Y72831D02*
G01X256694Y72831D01*
G01X259234Y70291D01*
G01X235104Y72831D02*
G01X237644Y72831D01*
G01X240184Y70291D01*
G01X216054Y72831D02*
G01X218594Y72831D01*
G01X221134Y70291D01*
G01X197004Y72831D02*
G01X199544Y72831D01*
G01X202084Y70291D01*
G01X177954Y72831D02*
G01X180494Y72831D01*
G01X183034Y70291D01*
G01X158904Y72831D02*
G01X161444Y72831D01*
G01X163984Y70291D01*
G01X139854Y72831D02*
G01X142394Y72831D01*
G01X144934Y70291D01*
G01X120804Y72831D02*
G01X123344Y72831D01*
G01X125884Y70291D01*
G01X101754Y62671D02*
G01X254154Y62671D01*
G01X63654Y62671D02*
G01X79783Y62671D01*
G01X82704Y62671D01*
G01X83974Y62671D01*
G01X85244Y62671D01*
G01X101754Y62671D01*
G01X101754Y72831D02*
G01X104294Y72831D01*
G01X106834Y70291D01*
G01X82704Y72831D02*
G01X85244Y72831D01*
G01X87784Y70291D01*
G01X63654Y72831D02*
G01X66194Y72831D01*
G01X68734Y70291D01*
G01X44604Y72831D02*
G01X47144Y72831D01*
G01X49684Y70291D01*
G01X25554Y72831D02*
G01X28094Y72831D01*
G01X30634Y70291D01*
G01X3964Y72831D02*
G01X6631Y72831D01*
G01X9171Y70291D01*
G01X251614Y81721D02*
G01X134774Y81721D01*
G01X134774Y81721D02*
G01X131157Y81721D01*
G01X20474Y81721D01*
G01X20474Y5521D02*
G01X254154Y5521D01*
G01X3964Y24571D02*
G01X254154Y24571D01*
G01X247804Y43621D02*
G01X6504Y43621D01*
G01X3964Y62671D02*
G01X63654Y62671D01*
G01X197004Y70291D02*
G01X202084Y70291D01*
G01X177954Y70291D02*
G01X183034Y70291D01*
G01X158904Y70291D02*
G01X163984Y70291D01*
G01X139854Y70291D02*
G01X144934Y70291D01*
G01X106834Y13141D02*
G01X91594Y13141D01*
G01X144934Y13141D02*
G01X167794Y13141D01*
G01X206783Y51241D02*
G01X202084Y51241D01*
G01X187733Y51241D02*
G01X183034Y51241D01*
G01X168683Y51241D02*
G01X163984Y51241D01*
G01X149633Y51241D02*
G01X144934Y51241D01*

%LPD*%
G36*
G01X166196Y18549D02*
G01X165646Y19177D01*
G01X165392Y19175D01*
G01X164847Y18543D01*
G01X166196Y18549D01*
G37*

%LPD*%
G36*
G01X168480Y15174D02*
G01X168422Y16007D01*
G01X167468Y15053D01*
G01X168301Y14995D01*
G01X168480Y15174D01*
G37*

%LPD*%
G36*
G01X167651Y19176D02*
G01X167397Y19176D01*
G01X166849Y18546D01*
G01X168199Y18546D01*
G01X167651Y19176D01*
G37*

%LPD*%
G36*
G01X131919Y13268D02*
G01X131289Y13816D01*
G01X131289Y12466D01*
G01X131919Y13014D01*
G01X131919Y13268D01*
G37*

%LPD*%
G36*
G01X128117Y10450D02*
G01X128081Y11800D01*
G01X127466Y11236D01*
G01X127473Y10982D01*
G01X128117Y10450D01*
G37*

%LPD*%
G36*
G01X24968Y88388D02*
G01X24968Y90293D01*
G01X24079Y89468D01*
G01X24079Y89214D01*
G01X24968Y88388D01*
G37*

%LPD*%
G36*
G01X44018Y88388D02*
G01X44018Y90293D01*
G01X43129Y89468D01*
G01X43129Y89214D01*
G01X44018Y88388D01*
G37*

%LPD*%
G36*
G01X63068Y88388D02*
G01X63068Y90293D01*
G01X62179Y89468D01*
G01X62179Y89214D01*
G01X63068Y88388D01*
G37*

%LPD*%
G36*
G01X82118Y88388D02*
G01X82118Y90293D01*
G01X81229Y89468D01*
G01X81229Y89214D01*
G01X82118Y88388D01*
G37*

%LPD*%
G36*
G01X101168Y88388D02*
G01X101168Y90293D01*
G01X100279Y89468D01*
G01X100279Y89214D01*
G01X101168Y88388D01*
G37*

%LPD*%
G36*
G01X120218Y88388D02*
G01X120218Y90293D01*
G01X119329Y89468D01*
G01X119329Y89214D01*
G01X120218Y88388D01*
G37*

%LPD*%
G36*
G01X139268Y88388D02*
G01X139268Y90293D01*
G01X138379Y89468D01*
G01X138379Y89214D01*
G01X139268Y88388D01*
G37*

%LPD*%
G36*
G01X158318Y88388D02*
G01X158318Y90293D01*
G01X157429Y89468D01*
G01X157429Y89214D01*
G01X158318Y88388D01*
G37*

%LPD*%
G36*
G01X177368Y88388D02*
G01X177368Y90293D01*
G01X176479Y89468D01*
G01X176479Y89214D01*
G01X177368Y88388D01*
G37*

%LPD*%
G36*
G01X196418Y88388D02*
G01X196418Y90293D01*
G01X195529Y89468D01*
G01X195529Y89214D01*
G01X196418Y88388D01*
G37*

%LPD*%
G36*
G01X215468Y88388D02*
G01X215468Y90293D01*
G01X214579Y89468D01*
G01X214579Y89214D01*
G01X215468Y88388D01*
G37*

%LPD*%
G36*
G01X234518Y88388D02*
G01X234518Y90293D01*
G01X233629Y89468D01*
G01X233629Y89214D01*
G01X234518Y88388D01*
G37*

%LPD*%
G36*
G01X255981Y88388D02*
G01X255981Y90293D01*
G01X255092Y89468D01*
G01X255092Y89214D01*
G01X255981Y88388D01*
G37*

%LPD*%
G36*
G01X9251Y71558D02*
G01X8038Y71603D01*
G01X7859Y71424D01*
G01X7904Y70211D01*
G01X9251Y71558D01*
G37*

%LPD*%
G36*
G01X30714Y71558D02*
G01X29501Y71603D01*
G01X29322Y71424D01*
G01X29367Y70211D01*
G01X30714Y71558D01*
G37*

%LPD*%
G36*
G01X49764Y71558D02*
G01X48551Y71603D01*
G01X48372Y71424D01*
G01X48417Y70211D01*
G01X49764Y71558D01*
G37*

%LPD*%
G36*
G01X68814Y71558D02*
G01X67601Y71603D01*
G01X67422Y71424D01*
G01X67467Y70211D01*
G01X68814Y71558D01*
G37*

%LPD*%
G36*
G01X87864Y71558D02*
G01X86651Y71603D01*
G01X86472Y71424D01*
G01X86517Y70211D01*
G01X87864Y71558D01*
G37*

%LPD*%
G36*
G01X106914Y71558D02*
G01X105701Y71603D01*
G01X105522Y71424D01*
G01X105567Y70211D01*
G01X106914Y71558D01*
G37*

%LPD*%
G36*
G01X125964Y71558D02*
G01X124751Y71603D01*
G01X124572Y71424D01*
G01X124617Y70211D01*
G01X125964Y71558D01*
G37*

%LPD*%
G36*
G01X145014Y71558D02*
G01X143801Y71603D01*
G01X143622Y71424D01*
G01X143667Y70211D01*
G01X145014Y71558D01*
G37*

%LPD*%
G36*
G01X144094Y69338D02*
G01X144094Y71243D01*
G01X143205Y70418D01*
G01X143205Y70164D01*
G01X144094Y69338D01*
G37*

%LPD*%
G36*
G01X164064Y71558D02*
G01X162851Y71603D01*
G01X162672Y71424D01*
G01X162717Y70211D01*
G01X164064Y71558D01*
G37*

%LPD*%
G36*
G01X163144Y69338D02*
G01X163144Y71243D01*
G01X162255Y70418D01*
G01X162255Y70164D01*
G01X163144Y69338D01*
G37*

%LPD*%
G36*
G01X183114Y71558D02*
G01X181901Y71603D01*
G01X181722Y71424D01*
G01X181767Y70211D01*
G01X183114Y71558D01*
G37*

%LPD*%
G36*
G01X182194Y69338D02*
G01X182194Y71243D01*
G01X181305Y70418D01*
G01X181305Y70164D01*
G01X182194Y69338D01*
G37*

%LPD*%
G36*
G01X202164Y71558D02*
G01X200951Y71603D01*
G01X200772Y71424D01*
G01X200817Y70211D01*
G01X202164Y71558D01*
G37*

%LPD*%
G36*
G01X201244Y69338D02*
G01X201244Y71243D01*
G01X200355Y70418D01*
G01X200355Y70164D01*
G01X201244Y69338D01*
G37*

%LPD*%
G36*
G01X221214Y71558D02*
G01X220001Y71603D01*
G01X219822Y71424D01*
G01X219867Y70211D01*
G01X221214Y71558D01*
G37*

%LPD*%
G36*
G01X240264Y71558D02*
G01X239051Y71603D01*
G01X238872Y71424D01*
G01X238917Y70211D01*
G01X240264Y71558D01*
G37*

%LPD*%
G36*
G01X259314Y71558D02*
G01X258101Y71603D01*
G01X257922Y71424D01*
G01X257967Y70211D01*
G01X259314Y71558D01*
G37*

%LPD*%
G36*
G01X11664Y52635D02*
G01X10451Y52680D01*
G01X10272Y52501D01*
G01X10317Y51288D01*
G01X11664Y52635D01*
G37*

%LPD*%
G36*
G01X35413Y52508D02*
G01X34200Y52553D01*
G01X34021Y52374D01*
G01X34066Y51161D01*
G01X35413Y52508D01*
G37*

%LPD*%
G36*
G01X54463Y52508D02*
G01X53250Y52553D01*
G01X53071Y52374D01*
G01X53116Y51161D01*
G01X54463Y52508D01*
G37*

%LPD*%
G36*
G01X73513Y52508D02*
G01X72300Y52553D01*
G01X72121Y52374D01*
G01X72166Y51161D01*
G01X73513Y52508D01*
G37*

%LPD*%
G36*
G01X92563Y52508D02*
G01X91350Y52553D01*
G01X91171Y52374D01*
G01X91216Y51161D01*
G01X92563Y52508D01*
G37*

%LPD*%
G36*
G01X111613Y52508D02*
G01X110400Y52553D01*
G01X110221Y52374D01*
G01X110266Y51161D01*
G01X111613Y52508D01*
G37*

%LPD*%
G36*
G01X130663Y52508D02*
G01X129450Y52553D01*
G01X129271Y52374D01*
G01X129316Y51161D01*
G01X130663Y52508D01*
G37*

%LPD*%
G36*
G01X149713Y52508D02*
G01X148500Y52553D01*
G01X148321Y52374D01*
G01X148366Y51161D01*
G01X149713Y52508D01*
G37*

%LPD*%
G36*
G01X148793Y50288D02*
G01X148793Y52193D01*
G01X147904Y51368D01*
G01X147904Y51114D01*
G01X148793Y50288D01*
G37*

%LPD*%
G36*
G01X168763Y52508D02*
G01X167550Y52553D01*
G01X167371Y52374D01*
G01X167416Y51161D01*
G01X168763Y52508D01*
G37*

%LPD*%
G36*
G01X167843Y50288D02*
G01X167843Y52193D01*
G01X166954Y51368D01*
G01X166954Y51114D01*
G01X167843Y50288D01*
G37*

%LPD*%
G36*
G01X187813Y52508D02*
G01X186600Y52553D01*
G01X186421Y52374D01*
G01X186466Y51161D01*
G01X187813Y52508D01*
G37*

%LPD*%
G36*
G01X186893Y50288D02*
G01X186893Y52193D01*
G01X186004Y51368D01*
G01X186004Y51114D01*
G01X186893Y50288D01*
G37*

%LPD*%
G36*
G01X206863Y52508D02*
G01X205650Y52553D01*
G01X205471Y52374D01*
G01X205516Y51161D01*
G01X206863Y52508D01*
G37*

%LPD*%
G36*
G01X205943Y50288D02*
G01X205943Y52193D01*
G01X205054Y51368D01*
G01X205054Y51114D01*
G01X205943Y50288D01*
G37*

%LPD*%
G36*
G01X225913Y52508D02*
G01X224700Y52553D01*
G01X224521Y52374D01*
G01X224566Y51161D01*
G01X225913Y52508D01*
G37*

%LPD*%
G36*
G01X252202Y52508D02*
G01X250989Y52553D01*
G01X250810Y52374D01*
G01X250855Y51161D01*
G01X252202Y52508D01*
G37*

%LPD*%
G36*
G01X9251Y33458D02*
G01X8038Y33503D01*
G01X7859Y33324D01*
G01X7904Y32111D01*
G01X9251Y33458D01*
G37*

%LPD*%
G36*
G01X30714Y33458D02*
G01X29501Y33503D01*
G01X29322Y33324D01*
G01X29367Y32111D01*
G01X30714Y33458D01*
G37*

%LPD*%
G36*
G01X49764Y33458D02*
G01X48551Y33503D01*
G01X48372Y33324D01*
G01X48417Y32111D01*
G01X49764Y33458D01*
G37*

%LPD*%
G36*
G01X68814Y33458D02*
G01X67601Y33503D01*
G01X67422Y33324D01*
G01X67467Y32111D01*
G01X68814Y33458D01*
G37*

%LPD*%
G36*
G01X87864Y33458D02*
G01X86651Y33503D01*
G01X86472Y33324D01*
G01X86517Y32111D01*
G01X87864Y33458D01*
G37*

%LPD*%
G36*
G01X106914Y33458D02*
G01X105701Y33503D01*
G01X105522Y33324D01*
G01X105567Y32111D01*
G01X106914Y33458D01*
G37*

%LPD*%
G36*
G01X125964Y33458D02*
G01X124751Y33503D01*
G01X124572Y33324D01*
G01X124617Y32111D01*
G01X125964Y33458D01*
G37*

%LPD*%
G36*
G01X145014Y33458D02*
G01X143801Y33503D01*
G01X143622Y33324D01*
G01X143667Y32111D01*
G01X145014Y33458D01*
G37*

%LPD*%
G36*
G01X164064Y33458D02*
G01X162851Y33503D01*
G01X162672Y33324D01*
G01X162717Y32111D01*
G01X164064Y33458D01*
G37*

%LPD*%
G36*
G01X183114Y33458D02*
G01X181901Y33503D01*
G01X181722Y33324D01*
G01X181767Y32111D01*
G01X183114Y33458D01*
G37*

%LPD*%
G36*
G01X202164Y33458D02*
G01X200951Y33503D01*
G01X200772Y33324D01*
G01X200817Y32111D01*
G01X202164Y33458D01*
G37*

%LPD*%
G36*
G01X221214Y33458D02*
G01X220001Y33503D01*
G01X219822Y33324D01*
G01X219867Y32111D01*
G01X221214Y33458D01*
G37*

%LPD*%
G36*
G01X240264Y33458D02*
G01X239051Y33503D01*
G01X238872Y33324D01*
G01X238917Y32111D01*
G01X240264Y33458D01*
G37*

%LPD*%
G36*
G01X259314Y33458D02*
G01X258101Y33503D01*
G01X257922Y33324D01*
G01X257967Y32111D01*
G01X259314Y33458D01*
G37*

%LPD*%
G36*
G01X8071Y14274D02*
G01X7891Y14453D01*
G01X6679Y14408D01*
G01X8026Y13061D01*
G01X8071Y14274D01*
G37*

%LPD*%
G36*
G01X14296Y14418D02*
G01X14377Y15628D01*
G01X12897Y14428D01*
G01X14098Y14257D01*
G01X14296Y14418D01*
G37*

%LPD*%
G36*
G01X29950Y13268D02*
G01X29061Y14093D01*
G01X29061Y12188D01*
G01X29950Y13014D01*
G01X29950Y13268D01*
G37*

%LPD*%
G36*
G01X35884Y16814D02*
G01X35704Y16993D01*
G01X34492Y16948D01*
G01X35839Y15601D01*
G01X35884Y16814D01*
G37*

%LPD*%
G36*
G01X51384Y12188D02*
G01X51384Y14093D01*
G01X50495Y13268D01*
G01X50495Y13014D01*
G01X51384Y12188D01*
G37*

%LPD*%
G36*
G01X75006Y12188D02*
G01X75006Y14093D01*
G01X74117Y13268D01*
G01X74117Y13014D01*
G01X75006Y12188D01*
G37*

%LPD*%
G36*
G01X105994Y12188D02*
G01X105994Y14093D01*
G01X105105Y13268D01*
G01X105105Y13014D01*
G01X105994Y12188D01*
G37*

%LPD*%
G36*
G01X146663Y13268D02*
G01X145774Y14093D01*
G01X145774Y12188D01*
G01X146663Y13014D01*
G01X146663Y13268D01*
G37*

%LPD*%
G36*
G01X177524Y13268D02*
G01X176635Y14093D01*
G01X176635Y12188D01*
G01X177524Y13014D01*
G01X177524Y13268D01*
G37*

%LPD*%
G36*
G01X182272Y17410D02*
G01X182018Y17410D01*
G01X181193Y16521D01*
G01X183098Y16521D01*
G01X182272Y17410D01*
G37*

%LPD*%
G36*
G01X199751Y14408D02*
G01X198538Y14453D01*
G01X198359Y14274D01*
G01X198404Y13061D01*
G01X199751Y14408D01*
G37*

%LPD*%
G36*
G01X207273Y14481D02*
G01X207291Y15694D01*
G01X205876Y14419D01*
G01X207084Y14311D01*
G01X207273Y14481D01*
G37*

%LPD*%
G36*
G01X221214Y14408D02*
G01X220001Y14453D01*
G01X219822Y14274D01*
G01X219867Y13061D01*
G01X221214Y14408D01*
G37*

%LPD*%
G36*
G01X226644Y14728D02*
G01X226644Y16633D01*
G01X225755Y15808D01*
G01X225755Y15554D01*
G01X226644Y14728D01*
G37*

%LPD*%
G36*
G01X240264Y14408D02*
G01X239051Y14453D01*
G01X238872Y14274D01*
G01X238917Y13061D01*
G01X240264Y14408D01*
G37*

%LPD*%
G36*
G01X259314Y14408D02*
G01X258101Y14453D01*
G01X257922Y14274D01*
G01X257967Y13061D01*
G01X259314Y14408D01*
G37*

%LPD*%
G36*
G01X64811Y72958D02*
G01X64216Y73468D01*
G01X64216Y72194D01*
G01X64811Y72704D01*
G01X64811Y72958D01*
G37*

%LPD*%
G36*
G01X19912Y15044D02*
G01X19912Y16318D01*
G01X19317Y15808D01*
G01X19317Y15554D01*
G01X19912Y15044D01*
G37*

%LPD*%
G36*
G01X31791Y53908D02*
G01X31196Y54418D01*
G01X31196Y53144D01*
G01X31791Y53654D01*
G01X31791Y53908D01*
G37*

%LPD*%
G36*
G01X21382Y91153D02*
G01X21322Y91934D01*
G01X20421Y91033D01*
G01X21202Y90973D01*
G01X21382Y91153D01*
G37*

%LPD*%
G36*
G01X40432Y91153D02*
G01X40372Y91934D01*
G01X39471Y91033D01*
G01X40252Y90973D01*
G01X40432Y91153D01*
G37*

%LPD*%
G36*
G01X59482Y91153D02*
G01X59422Y91934D01*
G01X58521Y91033D01*
G01X59302Y90973D01*
G01X59482Y91153D01*
G37*

%LPD*%
G36*
G01X78513Y91129D02*
G01X78473Y91912D01*
G01X77549Y91034D01*
G01X78328Y90954D01*
G01X78513Y91129D01*
G37*

%LPD*%
G36*
G01X97582Y91153D02*
G01X97522Y91934D01*
G01X96621Y91033D01*
G01X97402Y90973D01*
G01X97582Y91153D01*
G37*

%LPD*%
G36*
G01X116632Y91153D02*
G01X116572Y91934D01*
G01X115671Y91033D01*
G01X116452Y90973D01*
G01X116632Y91153D01*
G37*

%LPD*%
G36*
G01X135682Y91153D02*
G01X135622Y91934D01*
G01X134721Y91033D01*
G01X135502Y90973D01*
G01X135682Y91153D01*
G37*

%LPD*%
G36*
G01X154732Y91153D02*
G01X154672Y91934D01*
G01X153771Y91033D01*
G01X154552Y90973D01*
G01X154732Y91153D01*
G37*

%LPD*%
G36*
G01X173782Y91153D02*
G01X173722Y91934D01*
G01X172821Y91033D01*
G01X173602Y90973D01*
G01X173782Y91153D01*
G37*

%LPD*%
G36*
G01X192832Y91153D02*
G01X192772Y91934D01*
G01X191871Y91033D01*
G01X192652Y90973D01*
G01X192832Y91153D01*
G37*

%LPD*%
G36*
G01X211882Y91153D02*
G01X211822Y91934D01*
G01X210921Y91033D01*
G01X211702Y90973D01*
G01X211882Y91153D01*
G37*

%LPD*%
G36*
G01X230932Y91153D02*
G01X230872Y91934D01*
G01X229971Y91033D01*
G01X230752Y90973D01*
G01X230932Y91153D01*
G37*

%LPD*%
G36*
G01X252600Y91263D02*
G01X252450Y92031D01*
G01X251659Y91032D01*
G01X252441Y91062D01*
G01X252600Y91263D01*
G37*

%LPD*%
G36*
G01X5121Y72958D02*
G01X4526Y73468D01*
G01X4526Y72194D01*
G01X5121Y72704D01*
G01X5121Y72958D01*
G37*

%LPD*%
G36*
G01X26711Y72958D02*
G01X26116Y73468D01*
G01X26116Y72194D01*
G01X26711Y72704D01*
G01X26711Y72958D01*
G37*

%LPD*%
G36*
G01X45761Y72958D02*
G01X45166Y73468D01*
G01X45166Y72194D01*
G01X45761Y72704D01*
G01X45761Y72958D01*
G37*

%LPD*%
G36*
G01X83861Y72958D02*
G01X83266Y73468D01*
G01X83266Y72194D01*
G01X83861Y72704D01*
G01X83861Y72958D01*
G37*

%LPD*%
G36*
G01X102911Y72958D02*
G01X102316Y73468D01*
G01X102316Y72194D01*
G01X102911Y72704D01*
G01X102911Y72958D01*
G37*

%LPD*%
G36*
G01X121961Y72958D02*
G01X121366Y73468D01*
G01X121366Y72194D01*
G01X121961Y72704D01*
G01X121961Y72958D01*
G37*

%LPD*%
G36*
G01X141011Y72958D02*
G01X140416Y73468D01*
G01X140416Y72194D01*
G01X141011Y72704D01*
G01X141011Y72958D01*
G37*

%LPD*%
G36*
G01X160061Y72958D02*
G01X159466Y73468D01*
G01X159466Y72194D01*
G01X160061Y72704D01*
G01X160061Y72958D01*
G37*

%LPD*%
G36*
G01X179111Y72958D02*
G01X178516Y73468D01*
G01X178516Y72194D01*
G01X179111Y72704D01*
G01X179111Y72958D01*
G37*

%LPD*%
G36*
G01X198161Y72958D02*
G01X197566Y73468D01*
G01X197566Y72194D01*
G01X198161Y72704D01*
G01X198161Y72958D01*
G37*

%LPD*%
G36*
G01X217211Y72958D02*
G01X216616Y73468D01*
G01X216616Y72194D01*
G01X217211Y72704D01*
G01X217211Y72958D01*
G37*

%LPD*%
G36*
G01X236261Y72958D02*
G01X235666Y73468D01*
G01X235666Y72194D01*
G01X236261Y72704D01*
G01X236261Y72958D01*
G37*

%LPD*%
G36*
G01X255311Y72958D02*
G01X254716Y73468D01*
G01X254716Y72194D01*
G01X255311Y72704D01*
G01X255311Y72958D01*
G37*

%LPD*%
G36*
G01X7661Y53908D02*
G01X7066Y54418D01*
G01X7066Y53144D01*
G01X7661Y53654D01*
G01X7661Y53908D01*
G37*

%LPD*%
G36*
G01X50841Y53908D02*
G01X50246Y54418D01*
G01X50246Y53144D01*
G01X50841Y53654D01*
G01X50841Y53908D01*
G37*

%LPD*%
G36*
G01X69891Y53908D02*
G01X69296Y54418D01*
G01X69296Y53144D01*
G01X69891Y53654D01*
G01X69891Y53908D01*
G37*

%LPD*%
G36*
G01X88941Y53908D02*
G01X88346Y54418D01*
G01X88346Y53144D01*
G01X88941Y53654D01*
G01X88941Y53908D01*
G37*

%LPD*%
G36*
G01X107991Y53908D02*
G01X107396Y54418D01*
G01X107396Y53144D01*
G01X107991Y53654D01*
G01X107991Y53908D01*
G37*

%LPD*%
G36*
G01X127041Y53908D02*
G01X126446Y54418D01*
G01X126446Y53144D01*
G01X127041Y53654D01*
G01X127041Y53908D01*
G37*

%LPD*%
G36*
G01X146091Y53908D02*
G01X145496Y54418D01*
G01X145496Y53144D01*
G01X146091Y53654D01*
G01X146091Y53908D01*
G37*

%LPD*%
G36*
G01X165141Y53908D02*
G01X164546Y54418D01*
G01X164546Y53144D01*
G01X165141Y53654D01*
G01X165141Y53908D01*
G37*

%LPD*%
G36*
G01X184191Y53908D02*
G01X183596Y54418D01*
G01X183596Y53144D01*
G01X184191Y53654D01*
G01X184191Y53908D01*
G37*

%LPD*%
G36*
G01X203241Y53908D02*
G01X202646Y54418D01*
G01X202646Y53144D01*
G01X203241Y53654D01*
G01X203241Y53908D01*
G37*

%LPD*%
G36*
G01X222291Y53908D02*
G01X221696Y54418D01*
G01X221696Y53144D01*
G01X222291Y53654D01*
G01X222291Y53908D01*
G37*

%LPD*%
G36*
G01X248961Y53908D02*
G01X248366Y54418D01*
G01X248366Y53144D01*
G01X248961Y53654D01*
G01X248961Y53908D01*
G37*

%LPD*%
G36*
G01X5121Y34858D02*
G01X4526Y35368D01*
G01X4526Y34094D01*
G01X5121Y34604D01*
G01X5121Y34858D01*
G37*

%LPD*%
G36*
G01X26711Y34858D02*
G01X26116Y35368D01*
G01X26116Y34094D01*
G01X26711Y34604D01*
G01X26711Y34858D01*
G37*

%LPD*%
G36*
G01X64811Y34858D02*
G01X64216Y35368D01*
G01X64216Y34094D01*
G01X64811Y34604D01*
G01X64811Y34858D01*
G37*

%LPD*%
G36*
G01X83861Y34858D02*
G01X83266Y35368D01*
G01X83266Y34094D01*
G01X83861Y34604D01*
G01X83861Y34858D01*
G37*

%LPD*%
G36*
G01X102911Y34858D02*
G01X102316Y35368D01*
G01X102316Y34094D01*
G01X102911Y34604D01*
G01X102911Y34858D01*
G37*

%LPD*%
G36*
G01X121961Y34858D02*
G01X121366Y35368D01*
G01X121366Y34094D01*
G01X121961Y34604D01*
G01X121961Y34858D01*
G37*

%LPD*%
G36*
G01X141011Y34858D02*
G01X140416Y35368D01*
G01X140416Y34094D01*
G01X141011Y34604D01*
G01X141011Y34858D01*
G37*

%LPD*%
G36*
G01X160061Y34858D02*
G01X159466Y35368D01*
G01X159466Y34094D01*
G01X160061Y34604D01*
G01X160061Y34858D01*
G37*

%LPD*%
G36*
G01X179111Y34858D02*
G01X178516Y35368D01*
G01X178516Y34094D01*
G01X179111Y34604D01*
G01X179111Y34858D01*
G37*

%LPD*%
G36*
G01X198161Y34858D02*
G01X197566Y35368D01*
G01X197566Y34094D01*
G01X198161Y34604D01*
G01X198161Y34858D01*
G37*

%LPD*%
G36*
G01X217211Y34858D02*
G01X216616Y35368D01*
G01X216616Y34094D01*
G01X217211Y34604D01*
G01X217211Y34858D01*
G37*

%LPD*%
G36*
G01X236261Y34858D02*
G01X235666Y35368D01*
G01X235666Y34094D01*
G01X236261Y34604D01*
G01X236261Y34858D01*
G37*

%LPD*%
G36*
G01X255311Y34858D02*
G01X254716Y35368D01*
G01X254716Y34094D01*
G01X255311Y34604D01*
G01X255311Y34858D01*
G37*

%LPD*%
G36*
G01X42117Y14833D02*
G01X41216Y15734D01*
G01X41156Y14953D01*
G01X41336Y14773D01*
G01X42117Y14833D01*
G37*

%LPD*%
G36*
G01X46782Y14953D02*
G01X46722Y15734D01*
G01X45821Y14833D01*
G01X46602Y14773D01*
G01X46782Y14953D01*
G37*

%LPD*%
G36*
G01X72182Y14953D02*
G01X72122Y15734D01*
G01X71221Y14833D01*
G01X72002Y14773D01*
G01X72182Y14953D01*
G37*

%LPD*%
G36*
G01X92751Y13268D02*
G01X92156Y13778D01*
G01X92156Y12504D01*
G01X92751Y13014D01*
G01X92751Y13268D01*
G37*

%LPD*%
G36*
G01X189437Y14833D02*
G01X188536Y15734D01*
G01X188476Y14953D01*
G01X188656Y14773D01*
G01X189437Y14833D01*
G37*

%LPD*%
G36*
G01X195621Y15808D02*
G01X195026Y16318D01*
G01X195026Y15044D01*
G01X195621Y15554D01*
G01X195621Y15808D01*
G37*

%LPD*%
G36*
G01X214671Y15808D02*
G01X214076Y16318D01*
G01X214076Y15044D01*
G01X214671Y15554D01*
G01X214671Y15808D01*
G37*

%LPD*%
G36*
G01X236261Y15808D02*
G01X235666Y16318D01*
G01X235666Y15044D01*
G01X236261Y15554D01*
G01X236261Y15808D01*
G37*

%LPD*%
G36*
G01X45761Y34858D02*
G01X45166Y35368D01*
G01X45166Y34094D01*
G01X45761Y34604D01*
G01X45761Y34858D01*
G37*

%LPD*%
G36*
G01X255311Y15808D02*
G01X254716Y16318D01*
G01X254716Y15044D01*
G01X255311Y15554D01*
G01X255311Y15808D01*
G37*

%LPD*%
G36*
G01X167232Y12504D02*
G01X167232Y13778D01*
G01X166637Y13268D01*
G01X166637Y13014D01*
G01X167232Y12504D01*
G37*

%LPD*%
G36*
G01X94820Y15174D02*
G01X94762Y16007D01*
G01X93808Y15053D01*
G01X94641Y14995D01*
G01X94820Y15174D01*
G37*

%LPD*%
G36*
G01X89269Y17276D02*
G01X89269Y18626D01*
G01X88639Y18078D01*
G01X88639Y17824D01*
G01X89269Y17276D01*
G37*

%LPD*%
G36*
G01X126923Y81458D02*
G01X126923Y81983D01*
G01X126678Y81848D01*
G01X126678Y81594D01*
G01X126923Y81458D01*
G37*

%LPD*%
G36*
G01X127631Y81848D02*
G01X127386Y81983D01*
G01X127386Y81458D01*
G01X127631Y81594D01*
G01X127631Y81848D01*
G37*

%LPD*%
G36*
G01X141146Y20411D02*
G01X140775Y20783D01*
G01X140697Y20514D01*
G01X140877Y20334D01*
G01X141146Y20411D01*
G37*

%LPD*%
G36*
G01X99641Y21784D02*
G01X99563Y22053D01*
G01X99192Y21681D01*
G01X99461Y21604D01*
G01X99641Y21784D01*
G37*

%LPD*%
G36*
G01X131729Y10286D02*
G01X131594Y10690D01*
G01X131145Y10241D01*
G01X131549Y10106D01*
G01X131729Y10286D01*
G37*

%LPD*%
G36*
G01X64885Y62798D02*
G01X64504Y62988D01*
G01X64504Y62353D01*
G01X64885Y62544D01*
G01X64885Y62798D01*
G37*

%LPD*%
G36*
G01X62804Y62353D02*
G01X62804Y62988D01*
G01X62423Y62798D01*
G01X62423Y62544D01*
G01X62804Y62353D01*
G37*

%LPD*%
G36*
G01X21705Y5648D02*
G01X21324Y5838D01*
G01X21324Y5203D01*
G01X21705Y5394D01*
G01X21705Y5648D01*
G37*

%LPD*%
G36*
G01X31865Y43748D02*
G01X31484Y43938D01*
G01X31484Y43303D01*
G01X31865Y43494D01*
G01X31865Y43748D01*
G37*

%LPD*%
G36*
G01X29784Y43303D02*
G01X29784Y43938D01*
G01X29403Y43748D01*
G01X29403Y43494D01*
G01X29784Y43303D01*
G37*

%LPD*%
G36*
G01X21705Y81848D02*
G01X21324Y82038D01*
G01X21324Y81403D01*
G01X21705Y81594D01*
G01X21705Y81848D01*
G37*

%LPD*%
G36*
G01X40755Y81848D02*
G01X40374Y82038D01*
G01X40374Y81403D01*
G01X40755Y81594D01*
G01X40755Y81848D01*
G37*

%LPD*%
G36*
G01X38674Y81403D02*
G01X38674Y82038D01*
G01X38293Y81848D01*
G01X38293Y81594D01*
G01X38674Y81403D01*
G37*

%LPD*%
G36*
G01X59805Y81848D02*
G01X59424Y82038D01*
G01X59424Y81403D01*
G01X59805Y81594D01*
G01X59805Y81848D01*
G37*

%LPD*%
G36*
G01X57724Y81403D02*
G01X57724Y82038D01*
G01X57343Y81848D01*
G01X57343Y81594D01*
G01X57724Y81403D01*
G37*

%LPD*%
G36*
G01X78855Y81848D02*
G01X78474Y82038D01*
G01X78474Y81403D01*
G01X78855Y81594D01*
G01X78855Y81848D01*
G37*

%LPD*%
G36*
G01X76774Y81403D02*
G01X76774Y82038D01*
G01X76393Y81848D01*
G01X76393Y81594D01*
G01X76774Y81403D01*
G37*

%LPD*%
G36*
G01X97905Y81848D02*
G01X97524Y82038D01*
G01X97524Y81403D01*
G01X97905Y81594D01*
G01X97905Y81848D01*
G37*

%LPD*%
G36*
G01X95824Y81403D02*
G01X95824Y82038D01*
G01X95443Y81848D01*
G01X95443Y81594D01*
G01X95824Y81403D01*
G37*

%LPD*%
G36*
G01X116955Y81848D02*
G01X116574Y82038D01*
G01X116574Y81403D01*
G01X116955Y81594D01*
G01X116955Y81848D01*
G37*

%LPD*%
G36*
G01X114874Y81403D02*
G01X114874Y82038D01*
G01X114493Y81848D01*
G01X114493Y81594D01*
G01X114874Y81403D01*
G37*

%LPD*%
G36*
G01X136005Y81848D02*
G01X135624Y82038D01*
G01X135624Y81403D01*
G01X136005Y81594D01*
G01X136005Y81848D01*
G37*

%LPD*%
G36*
G01X133924Y81403D02*
G01X133924Y82038D01*
G01X133543Y81848D01*
G01X133543Y81594D01*
G01X133924Y81403D01*
G37*

%LPD*%
G36*
G01X155055Y81848D02*
G01X154674Y82038D01*
G01X154674Y81403D01*
G01X155055Y81594D01*
G01X155055Y81848D01*
G37*

%LPD*%
G36*
G01X152974Y81403D02*
G01X152974Y82038D01*
G01X152593Y81848D01*
G01X152593Y81594D01*
G01X152974Y81403D01*
G37*

%LPD*%
G36*
G01X174105Y81848D02*
G01X173724Y82038D01*
G01X173724Y81403D01*
G01X174105Y81594D01*
G01X174105Y81848D01*
G37*

%LPD*%
G36*
G01X172024Y81403D02*
G01X172024Y82038D01*
G01X171643Y81848D01*
G01X171643Y81594D01*
G01X172024Y81403D01*
G37*

%LPD*%
G36*
G01X193155Y81848D02*
G01X192774Y82038D01*
G01X192774Y81403D01*
G01X193155Y81594D01*
G01X193155Y81848D01*
G37*

%LPD*%
G36*
G01X191074Y81403D02*
G01X191074Y82038D01*
G01X190693Y81848D01*
G01X190693Y81594D01*
G01X191074Y81403D01*
G37*

%LPD*%
G36*
G01X212205Y81848D02*
G01X211824Y82038D01*
G01X211824Y81403D01*
G01X212205Y81594D01*
G01X212205Y81848D01*
G37*

%LPD*%
G36*
G01X210124Y81403D02*
G01X210124Y82038D01*
G01X209743Y81848D01*
G01X209743Y81594D01*
G01X210124Y81403D01*
G37*

%LPD*%
G36*
G01X231255Y81848D02*
G01X230874Y82038D01*
G01X230874Y81403D01*
G01X231255Y81594D01*
G01X231255Y81848D01*
G37*

%LPD*%
G36*
G01X229174Y81403D02*
G01X229174Y82038D01*
G01X228793Y81848D01*
G01X228793Y81594D01*
G01X229174Y81403D01*
G37*

%LPD*%
G36*
G01X250764Y81403D02*
G01X250764Y82038D01*
G01X250383Y81848D01*
G01X250383Y81594D01*
G01X250764Y81403D01*
G37*

%LPD*%
G36*
G01X5195Y62798D02*
G01X4814Y62988D01*
G01X4814Y62353D01*
G01X5195Y62544D01*
G01X5195Y62798D01*
G37*

%LPD*%
G36*
G01X24704Y62353D02*
G01X24704Y62988D01*
G01X24323Y62798D01*
G01X24323Y62544D01*
G01X24704Y62353D01*
G37*

%LPD*%
G36*
G01X26785Y62798D02*
G01X26404Y62988D01*
G01X26404Y62353D01*
G01X26785Y62544D01*
G01X26785Y62798D01*
G37*

%LPD*%
G36*
G01X43754Y62353D02*
G01X43754Y62988D01*
G01X43373Y62798D01*
G01X43373Y62544D01*
G01X43754Y62353D01*
G37*

%LPD*%
G36*
G01X45835Y62798D02*
G01X45454Y62988D01*
G01X45454Y62353D01*
G01X45835Y62544D01*
G01X45835Y62798D01*
G37*

%LPD*%
G36*
G01X81854Y62353D02*
G01X81854Y62988D01*
G01X81473Y62798D01*
G01X81473Y62544D01*
G01X81854Y62353D01*
G37*

%LPD*%
G36*
G01X83935Y62798D02*
G01X83554Y62988D01*
G01X83554Y62353D01*
G01X83935Y62544D01*
G01X83935Y62798D01*
G37*

%LPD*%
G36*
G01X102985Y62798D02*
G01X102604Y62988D01*
G01X102604Y62353D01*
G01X102985Y62544D01*
G01X102985Y62798D01*
G37*

%LPD*%
G36*
G01X100904Y62353D02*
G01X100904Y62988D01*
G01X100523Y62798D01*
G01X100523Y62544D01*
G01X100904Y62353D01*
G37*

%LPD*%
G36*
G01X119954Y62353D02*
G01X119954Y62988D01*
G01X119573Y62798D01*
G01X119573Y62544D01*
G01X119954Y62353D01*
G37*

%LPD*%
G36*
G01X122035Y62798D02*
G01X121654Y62988D01*
G01X121654Y62353D01*
G01X122035Y62544D01*
G01X122035Y62798D01*
G37*

%LPD*%
G36*
G01X139004Y62353D02*
G01X139004Y62988D01*
G01X138623Y62798D01*
G01X138623Y62544D01*
G01X139004Y62353D01*
G37*

%LPD*%
G36*
G01X141085Y62798D02*
G01X140704Y62988D01*
G01X140704Y62353D01*
G01X141085Y62544D01*
G01X141085Y62798D01*
G37*

%LPD*%
G36*
G01X158054Y62353D02*
G01X158054Y62988D01*
G01X157673Y62798D01*
G01X157673Y62544D01*
G01X158054Y62353D01*
G37*

%LPD*%
G36*
G01X160135Y62798D02*
G01X159754Y62988D01*
G01X159754Y62353D01*
G01X160135Y62544D01*
G01X160135Y62798D01*
G37*

%LPD*%
G36*
G01X177104Y62353D02*
G01X177104Y62988D01*
G01X176723Y62798D01*
G01X176723Y62544D01*
G01X177104Y62353D01*
G37*

%LPD*%
G36*
G01X179185Y62798D02*
G01X178804Y62988D01*
G01X178804Y62353D01*
G01X179185Y62544D01*
G01X179185Y62798D01*
G37*

%LPD*%
G36*
G01X196154Y62353D02*
G01X196154Y62988D01*
G01X195773Y62798D01*
G01X195773Y62544D01*
G01X196154Y62353D01*
G37*

%LPD*%
G36*
G01X198235Y62798D02*
G01X197854Y62988D01*
G01X197854Y62353D01*
G01X198235Y62544D01*
G01X198235Y62798D01*
G37*

%LPD*%
G36*
G01X215204Y62353D02*
G01X215204Y62988D01*
G01X214823Y62798D01*
G01X214823Y62544D01*
G01X215204Y62353D01*
G37*

%LPD*%
G36*
G01X217285Y62798D02*
G01X216904Y62988D01*
G01X216904Y62353D01*
G01X217285Y62544D01*
G01X217285Y62798D01*
G37*

%LPD*%
G36*
G01X234254Y62353D02*
G01X234254Y62988D01*
G01X233873Y62798D01*
G01X233873Y62544D01*
G01X234254Y62353D01*
G37*

%LPD*%
G36*
G01X236335Y62798D02*
G01X235954Y62988D01*
G01X235954Y62353D01*
G01X236335Y62544D01*
G01X236335Y62798D01*
G37*

%LPD*%
G36*
G01X253304Y62353D02*
G01X253304Y62988D01*
G01X252923Y62798D01*
G01X252923Y62544D01*
G01X253304Y62353D01*
G37*

%LPD*%
G36*
G01X7735Y43748D02*
G01X7354Y43938D01*
G01X7354Y43303D01*
G01X7735Y43494D01*
G01X7735Y43748D01*
G37*

%LPD*%
G36*
G01X50915Y43748D02*
G01X50534Y43938D01*
G01X50534Y43303D01*
G01X50915Y43494D01*
G01X50915Y43748D01*
G37*

%LPD*%
G36*
G01X48834Y43303D02*
G01X48834Y43938D01*
G01X48453Y43748D01*
G01X48453Y43494D01*
G01X48834Y43303D01*
G37*

%LPD*%
G36*
G01X69965Y43748D02*
G01X69584Y43938D01*
G01X69584Y43303D01*
G01X69965Y43494D01*
G01X69965Y43748D01*
G37*

%LPD*%
G36*
G01X67884Y43303D02*
G01X67884Y43938D01*
G01X67503Y43748D01*
G01X67503Y43494D01*
G01X67884Y43303D01*
G37*

%LPD*%
G36*
G01X89015Y43748D02*
G01X88634Y43938D01*
G01X88634Y43303D01*
G01X89015Y43494D01*
G01X89015Y43748D01*
G37*

%LPD*%
G36*
G01X86934Y43303D02*
G01X86934Y43938D01*
G01X86553Y43748D01*
G01X86553Y43494D01*
G01X86934Y43303D01*
G37*

%LPD*%
G36*
G01X108065Y43748D02*
G01X107684Y43938D01*
G01X107684Y43303D01*
G01X108065Y43494D01*
G01X108065Y43748D01*
G37*

%LPD*%
G36*
G01X105984Y43303D02*
G01X105984Y43938D01*
G01X105603Y43748D01*
G01X105603Y43494D01*
G01X105984Y43303D01*
G37*

%LPD*%
G36*
G01X127115Y43748D02*
G01X126734Y43938D01*
G01X126734Y43303D01*
G01X127115Y43494D01*
G01X127115Y43748D01*
G37*

%LPD*%
G36*
G01X125034Y43303D02*
G01X125034Y43938D01*
G01X124653Y43748D01*
G01X124653Y43494D01*
G01X125034Y43303D01*
G37*

%LPD*%
G36*
G01X146165Y43748D02*
G01X145784Y43938D01*
G01X145784Y43303D01*
G01X146165Y43494D01*
G01X146165Y43748D01*
G37*

%LPD*%
G36*
G01X144084Y43303D02*
G01X144084Y43938D01*
G01X143703Y43748D01*
G01X143703Y43494D01*
G01X144084Y43303D01*
G37*

%LPD*%
G36*
G01X165215Y43748D02*
G01X164834Y43938D01*
G01X164834Y43303D01*
G01X165215Y43494D01*
G01X165215Y43748D01*
G37*

%LPD*%
G36*
G01X163134Y43303D02*
G01X163134Y43938D01*
G01X162753Y43748D01*
G01X162753Y43494D01*
G01X163134Y43303D01*
G37*

%LPD*%
G36*
G01X184265Y43748D02*
G01X183884Y43938D01*
G01X183884Y43303D01*
G01X184265Y43494D01*
G01X184265Y43748D01*
G37*

%LPD*%
G36*
G01X182184Y43303D02*
G01X182184Y43938D01*
G01X181803Y43748D01*
G01X181803Y43494D01*
G01X182184Y43303D01*
G37*

%LPD*%
G36*
G01X203315Y43748D02*
G01X202934Y43938D01*
G01X202934Y43303D01*
G01X203315Y43494D01*
G01X203315Y43748D01*
G37*

%LPD*%
G36*
G01X201234Y43303D02*
G01X201234Y43938D01*
G01X200853Y43748D01*
G01X200853Y43494D01*
G01X201234Y43303D01*
G37*

%LPD*%
G36*
G01X222365Y43748D02*
G01X221984Y43938D01*
G01X221984Y43303D01*
G01X222365Y43494D01*
G01X222365Y43748D01*
G37*

%LPD*%
G36*
G01X220284Y43303D02*
G01X220284Y43938D01*
G01X219903Y43748D01*
G01X219903Y43494D01*
G01X220284Y43303D01*
G37*

%LPD*%
G36*
G01X246954Y43303D02*
G01X246954Y43938D01*
G01X246573Y43748D01*
G01X246573Y43494D01*
G01X246954Y43303D01*
G37*

%LPD*%
G36*
G01X5195Y24698D02*
G01X4814Y24888D01*
G01X4814Y24253D01*
G01X5195Y24444D01*
G01X5195Y24698D01*
G37*

%LPD*%
G36*
G01X24704Y24253D02*
G01X24704Y24888D01*
G01X24323Y24698D01*
G01X24323Y24444D01*
G01X24704Y24253D01*
G37*

%LPD*%
G36*
G01X26785Y24698D02*
G01X26404Y24888D01*
G01X26404Y24253D01*
G01X26785Y24444D01*
G01X26785Y24698D01*
G37*

%LPD*%
G36*
G01X62804Y24253D02*
G01X62804Y24888D01*
G01X62423Y24698D01*
G01X62423Y24444D01*
G01X62804Y24253D01*
G37*

%LPD*%
G36*
G01X64885Y24698D02*
G01X64504Y24888D01*
G01X64504Y24253D01*
G01X64885Y24444D01*
G01X64885Y24698D01*
G37*

%LPD*%
G36*
G01X81854Y24253D02*
G01X81854Y24888D01*
G01X81473Y24698D01*
G01X81473Y24444D01*
G01X81854Y24253D01*
G37*

%LPD*%
G36*
G01X83935Y24698D02*
G01X83554Y24888D01*
G01X83554Y24253D01*
G01X83935Y24444D01*
G01X83935Y24698D01*
G37*

%LPD*%
G36*
G01X100904Y24253D02*
G01X100904Y24888D01*
G01X100523Y24698D01*
G01X100523Y24444D01*
G01X100904Y24253D01*
G37*

%LPD*%
G36*
G01X102985Y24698D02*
G01X102604Y24888D01*
G01X102604Y24253D01*
G01X102985Y24444D01*
G01X102985Y24698D01*
G37*

%LPD*%
G36*
G01X121122Y23721D02*
G01X120487Y23721D01*
G01X120677Y23340D01*
G01X120931Y23340D01*
G01X121122Y23721D01*
G37*

%LPD*%
G36*
G01X119954Y24253D02*
G01X119954Y24888D01*
G01X119573Y24698D01*
G01X119573Y24444D01*
G01X119954Y24253D01*
G37*

%LPD*%
G36*
G01X122035Y24698D02*
G01X121654Y24888D01*
G01X121654Y24253D01*
G01X122035Y24444D01*
G01X122035Y24698D01*
G37*

%LPD*%
G36*
G01X139004Y24253D02*
G01X139004Y24888D01*
G01X138623Y24698D01*
G01X138623Y24444D01*
G01X139004Y24253D01*
G37*

%LPD*%
G36*
G01X141085Y24698D02*
G01X140704Y24888D01*
G01X140704Y24253D01*
G01X141085Y24444D01*
G01X141085Y24698D01*
G37*

%LPD*%
G36*
G01X158054Y24253D02*
G01X158054Y24888D01*
G01X157673Y24698D01*
G01X157673Y24444D01*
G01X158054Y24253D01*
G37*

%LPD*%
G36*
G01X160135Y24698D02*
G01X159754Y24888D01*
G01X159754Y24253D01*
G01X160135Y24444D01*
G01X160135Y24698D01*
G37*

%LPD*%
G36*
G01X177104Y24253D02*
G01X177104Y24888D01*
G01X176723Y24698D01*
G01X176723Y24444D01*
G01X177104Y24253D01*
G37*

%LPD*%
G36*
G01X179185Y24698D02*
G01X178804Y24888D01*
G01X178804Y24253D01*
G01X179185Y24444D01*
G01X179185Y24698D01*
G37*

%LPD*%
G36*
G01X196154Y24253D02*
G01X196154Y24888D01*
G01X195773Y24698D01*
G01X195773Y24444D01*
G01X196154Y24253D01*
G37*

%LPD*%
G36*
G01X198235Y24698D02*
G01X197854Y24888D01*
G01X197854Y24253D01*
G01X198235Y24444D01*
G01X198235Y24698D01*
G37*

%LPD*%
G36*
G01X215204Y24253D02*
G01X215204Y24888D01*
G01X214823Y24698D01*
G01X214823Y24444D01*
G01X215204Y24253D01*
G37*

%LPD*%
G36*
G01X217285Y24698D02*
G01X216904Y24888D01*
G01X216904Y24253D01*
G01X217285Y24444D01*
G01X217285Y24698D01*
G37*

%LPD*%
G36*
G01X234254Y24253D02*
G01X234254Y24888D01*
G01X233873Y24698D01*
G01X233873Y24444D01*
G01X234254Y24253D01*
G37*

%LPD*%
G36*
G01X236335Y24698D02*
G01X235954Y24888D01*
G01X235954Y24253D01*
G01X236335Y24444D01*
G01X236335Y24698D01*
G37*

%LPD*%
G36*
G01X253304Y24253D02*
G01X253304Y24888D01*
G01X252923Y24698D01*
G01X252923Y24444D01*
G01X253304Y24253D01*
G37*

%LPD*%
G36*
G01X41214Y5203D02*
G01X41214Y5838D01*
G01X40833Y5648D01*
G01X40833Y5394D01*
G01X41214Y5203D01*
G37*

%LPD*%
G36*
G01X43295Y5648D02*
G01X42914Y5838D01*
G01X42914Y5203D01*
G01X43295Y5394D01*
G01X43295Y5648D01*
G37*

%LPD*%
G36*
G01X45024Y5203D02*
G01X45024Y5838D01*
G01X44643Y5648D01*
G01X44643Y5394D01*
G01X45024Y5203D01*
G37*

%LPD*%
G36*
G01X47105Y5648D02*
G01X46724Y5838D01*
G01X46724Y5203D01*
G01X47105Y5394D01*
G01X47105Y5648D01*
G37*

%LPD*%
G36*
G01X70424Y5203D02*
G01X70424Y5838D01*
G01X70043Y5648D01*
G01X70043Y5394D01*
G01X70424Y5203D01*
G37*

%LPD*%
G36*
G01X72505Y5648D02*
G01X72124Y5838D01*
G01X72124Y5203D01*
G01X72505Y5394D01*
G01X72505Y5648D01*
G37*

%LPD*%
G36*
G01X91194Y3830D02*
G01X90789Y3965D01*
G01X90610Y3786D01*
G01X90744Y3382D01*
G01X91194Y3830D01*
G37*

%LPD*%
G36*
G01X188534Y5203D02*
G01X188534Y5838D01*
G01X188153Y5648D01*
G01X188153Y5394D01*
G01X188534Y5203D01*
G37*

%LPD*%
G36*
G01X188534Y5203D02*
G01X188534Y5838D01*
G01X188153Y5648D01*
G01X188153Y5394D01*
G01X188534Y5203D01*
G37*

%LPD*%
G36*
G01X190615Y5648D02*
G01X190234Y5838D01*
G01X190234Y5203D01*
G01X190615Y5394D01*
G01X190615Y5648D01*
G37*

%LPD*%
G36*
G01X193614Y5203D02*
G01X193614Y5838D01*
G01X193233Y5648D01*
G01X193233Y5394D01*
G01X193614Y5203D01*
G37*

%LPD*%
G36*
G01X195695Y5648D02*
G01X195314Y5838D01*
G01X195314Y5203D01*
G01X195695Y5394D01*
G01X195695Y5648D01*
G37*

%LPD*%
G36*
G01X212664Y5203D02*
G01X212664Y5838D01*
G01X212283Y5648D01*
G01X212283Y5394D01*
G01X212664Y5203D01*
G37*

%LPD*%
G36*
G01X214745Y5648D02*
G01X214364Y5838D01*
G01X214364Y5203D01*
G01X214745Y5394D01*
G01X214745Y5648D01*
G37*

%LPD*%
G36*
G01X234254Y5203D02*
G01X234254Y5838D01*
G01X233873Y5648D01*
G01X233873Y5394D01*
G01X234254Y5203D01*
G37*

%LPD*%
G36*
G01X236335Y5648D02*
G01X235954Y5838D01*
G01X235954Y5203D01*
G01X236335Y5394D01*
G01X236335Y5648D01*
G37*

%LPD*%
G36*
G01X43754Y24253D02*
G01X43754Y24888D01*
G01X43373Y24698D01*
G01X43373Y24444D01*
G01X43754Y24253D01*
G37*

%LPD*%
G36*
G01X45835Y24698D02*
G01X45454Y24888D01*
G01X45454Y24253D01*
G01X45835Y24444D01*
G01X45835Y24698D01*
G37*

%LPD*%
G36*
G01X253304Y5203D02*
G01X253304Y5838D01*
G01X252923Y5648D01*
G01X252923Y5394D01*
G01X253304Y5203D01*
G37*

%LPD*%
G36*
G01X167394Y3830D02*
G01X166989Y3965D01*
G01X166810Y3786D01*
G01X166944Y3382D01*
G01X167394Y3830D01*
G37*

%LPD*%
G36*
G01X89413Y15051D02*
G01X88964Y15500D01*
G01X88829Y15096D01*
G01X89009Y14916D01*
G01X89413Y15051D01*
G37*
G54D12*
G01X127154Y81721D03*
G01X141124Y20761D03*
G54D13*
G01X163524Y17951D03*
G01X165524Y15951D03*
G01X165524Y17951D03*
G01X167524Y15951D03*
G01X167524Y17951D03*
G01X169524Y15951D03*
G36*
G01X170424Y17051D02*
G01X170424Y18851D01*
G01X168624Y18851D01*
G01X168624Y17051D01*
G01X170424Y17051D01*
G37*
G01X130694Y15141D03*
G01X128694Y13141D03*
G01X130694Y13141D03*
G01X128694Y11141D03*
G36*
G01X129794Y10241D02*
G01X131594Y10241D01*
G01X131594Y12041D01*
G01X129794Y12041D01*
G01X129794Y10241D01*
G37*
G54D15*
G01X25808Y89341D03*
G01X32158Y91881D03*
G01X44858Y89341D03*
G01X51208Y91881D03*
G01X63908Y89341D03*
G01X70258Y91881D03*
G01X82958Y89341D03*
G01X89308Y91881D03*
G01X102008Y89341D03*
G01X108358Y91881D03*
G01X121058Y89341D03*
G01X127408Y91881D03*
G01X140108Y89341D03*
G01X146458Y91881D03*
G01X159158Y89341D03*
G01X165508Y91881D03*
G01X178208Y89341D03*
G01X184558Y91881D03*
G01X197258Y89341D03*
G01X203608Y91881D03*
G01X216308Y89341D03*
G01X222658Y91881D03*
G01X235358Y89341D03*
G01X241708Y91881D03*
G01X256821Y89341D03*
G01X263171Y91881D03*
G01X9171Y70291D03*
G01X15521Y72831D03*
G01X30634Y70291D03*
G01X36984Y72831D03*
G01X49684Y70291D03*
G01X56034Y72831D03*
G01X68734Y70291D03*
G01X75084Y72831D03*
G01X87784Y70291D03*
G01X94134Y72831D03*
G01X106834Y70291D03*
G01X113184Y72831D03*
G01X125884Y70291D03*
G01X132234Y72831D03*
G01X144934Y70291D03*
G01X151284Y72831D03*
G01X163984Y70291D03*
G01X170334Y72831D03*
G01X183034Y70291D03*
G01X189384Y72831D03*
G01X202084Y70291D03*
G01X208434Y72831D03*
G01X221134Y70291D03*
G01X227484Y72831D03*
G01X240184Y70291D03*
G01X246534Y72831D03*
G01X259234Y70291D03*
G01X265584Y72831D03*
G01X11584Y51368D03*
G01X17934Y53908D03*
G01X35333Y51241D03*
G01X41683Y53781D03*
G01X54383Y51241D03*
G01X60733Y53781D03*
G01X73433Y51241D03*
G01X79783Y53781D03*
G01X92483Y51241D03*
G01X98833Y53781D03*
G01X111533Y51241D03*
G01X117883Y53781D03*
G01X130583Y51241D03*
G01X136933Y53781D03*
G01X149633Y51241D03*
G01X155983Y53781D03*
G01X168683Y51241D03*
G01X175033Y53781D03*
G01X187733Y51241D03*
G01X194083Y53781D03*
G01X206783Y51241D03*
G01X213133Y53781D03*
G01X225833Y51241D03*
G01X232183Y53781D03*
G01X252122Y51241D03*
G01X258472Y53781D03*
G01X9171Y32191D03*
G01X15521Y34731D03*
G01X30634Y32191D03*
G01X36984Y34731D03*
G01X49684Y32191D03*
G01X56034Y34731D03*
G01X68734Y32191D03*
G01X75084Y34731D03*
G01X87784Y32191D03*
G01X94134Y34731D03*
G01X106834Y32191D03*
G01X113184Y34731D03*
G01X125884Y32191D03*
G01X132234Y34731D03*
G01X144934Y32191D03*
G01X151284Y34731D03*
G01X163984Y32191D03*
G01X170334Y34731D03*
G01X183034Y32191D03*
G01X189384Y34731D03*
G01X202084Y32191D03*
G01X208434Y34731D03*
G01X221134Y32191D03*
G01X227484Y34731D03*
G01X240184Y32191D03*
G01X246534Y34731D03*
G01X259234Y32191D03*
G01X265584Y34731D03*
G01X6758Y13141D03*
G01X13108Y15681D03*
G01X28221Y13141D03*
G01X34571Y15681D03*
G01X52224Y13141D03*
G01X58574Y15681D03*
G01X75846Y13141D03*
G01X82196Y15681D03*
G01X106834Y13141D03*
G01X113184Y15681D03*
G01X144934Y13141D03*
G01X151284Y15681D03*
G01X175795Y13141D03*
G01X182145Y15681D03*
G01X199671Y13141D03*
G01X206021Y15681D03*
G01X221134Y13141D03*
G01X227484Y15681D03*
G01X240184Y13141D03*
G01X246534Y15681D03*
G01X259234Y13141D03*
G01X265584Y15681D03*
G54D16*
G01X63654Y72831D03*
G54D17*
G01X63654Y62671D03*
G54D16*
G01X20474Y15681D03*
G54D17*
G01X20474Y5521D03*
G54D16*
G01X30634Y53781D03*
G54D17*
G01X30634Y43621D03*
G54D16*
G01X20474Y91881D03*
G54D17*
G01X20474Y81721D03*
G54D16*
G01X39524Y91881D03*
G54D17*
G01X39524Y81721D03*
G54D16*
G01X58574Y91881D03*
G54D17*
G01X58574Y81721D03*
G54D16*
G01X77624Y91881D03*
G54D17*
G01X77624Y81721D03*
G54D16*
G01X96674Y91881D03*
G54D17*
G01X96674Y81721D03*
G54D16*
G01X115724Y91881D03*
G54D17*
G01X115724Y81721D03*
G54D16*
G01X134774Y91881D03*
G54D17*
G01X134774Y81721D03*
G54D16*
G01X153824Y91881D03*
G54D17*
G01X153824Y81721D03*
G54D16*
G01X172874Y91881D03*
G54D17*
G01X172874Y81721D03*
G54D16*
G01X191924Y91881D03*
G54D17*
G01X191924Y81721D03*
G54D16*
G01X210974Y91881D03*
G54D17*
G01X210974Y81721D03*
G54D16*
G01X230024Y91881D03*
G54D17*
G01X230024Y81721D03*
G54D16*
G01X251614Y91881D03*
G54D17*
G01X251614Y81721D03*
G54D16*
G01X3964Y72831D03*
G54D17*
G01X3964Y62671D03*
G54D16*
G01X25554Y72831D03*
G54D17*
G01X25554Y62671D03*
G54D16*
G01X44604Y72831D03*
G54D17*
G01X44604Y62671D03*
G54D16*
G01X82704Y72831D03*
G54D17*
G01X82704Y62671D03*
G54D16*
G01X101754Y72831D03*
G54D17*
G01X101754Y62671D03*
G54D16*
G01X120804Y72831D03*
G54D17*
G01X120804Y62671D03*
G54D16*
G01X139854Y72831D03*
G54D17*
G01X139854Y62671D03*
G54D16*
G01X158904Y72831D03*
G54D17*
G01X158904Y62671D03*
G54D16*
G01X177954Y72831D03*
G54D17*
G01X177954Y62671D03*
G54D16*
G01X197004Y72831D03*
G54D17*
G01X197004Y62671D03*
G54D16*
G01X216054Y72831D03*
G54D17*
G01X216054Y62671D03*
G54D16*
G01X235104Y72831D03*
G54D17*
G01X235104Y62671D03*
G54D16*
G01X254154Y72831D03*
G54D17*
G01X254154Y62671D03*
G54D16*
G01X6504Y53781D03*
G54D17*
G01X6504Y43621D03*
G54D16*
G01X49684Y53781D03*
G54D17*
G01X49684Y43621D03*
G54D16*
G01X68734Y53781D03*
G54D17*
G01X68734Y43621D03*
G54D16*
G01X87784Y53781D03*
G54D17*
G01X87784Y43621D03*
G54D16*
G01X106834Y53781D03*
G54D17*
G01X106834Y43621D03*
G54D16*
G01X125884Y53781D03*
G54D17*
G01X125884Y43621D03*
G54D16*
G01X144934Y53781D03*
G54D17*
G01X144934Y43621D03*
G54D16*
G01X163984Y53781D03*
G54D17*
G01X163984Y43621D03*
G54D16*
G01X183034Y53781D03*
G54D17*
G01X183034Y43621D03*
G54D16*
G01X202084Y53781D03*
G54D17*
G01X202084Y43621D03*
G54D16*
G01X221134Y53781D03*
G54D17*
G01X221134Y43621D03*
G54D16*
G01X247804Y53781D03*
G54D17*
G01X247804Y43621D03*
G54D16*
G01X3964Y34731D03*
G54D17*
G01X3964Y24571D03*
G54D16*
G01X25554Y34731D03*
G54D17*
G01X25554Y24571D03*
G54D16*
G01X63654Y34731D03*
G54D17*
G01X63654Y24571D03*
G54D16*
G01X82704Y34731D03*
G54D17*
G01X82704Y24571D03*
G54D16*
G01X101754Y34731D03*
G54D17*
G01X101754Y24571D03*
G54D16*
G01X120804Y34731D03*
G54D17*
G01X120804Y24571D03*
G54D16*
G01X139854Y34731D03*
G54D17*
G01X139854Y24571D03*
G54D16*
G01X158904Y34731D03*
G54D17*
G01X158904Y24571D03*
G54D16*
G01X177954Y34731D03*
G54D17*
G01X177954Y24571D03*
G54D16*
G01X197004Y34731D03*
G54D17*
G01X197004Y24571D03*
G54D16*
G01X216054Y34731D03*
G54D17*
G01X216054Y24571D03*
G54D16*
G01X235104Y34731D03*
G54D17*
G01X235104Y24571D03*
G54D16*
G01X254154Y34731D03*
G54D17*
G01X254154Y24571D03*
G54D16*
G01X42064Y15681D03*
G54D17*
G01X42064Y5521D03*
G54D16*
G01X45874Y15681D03*
G54D17*
G01X45874Y5521D03*
G54D16*
G01X71274Y15681D03*
G54D17*
G01X71274Y5521D03*
G54D16*
G01X91594Y13141D03*
G54D17*
G01X91594Y2981D03*
G54D16*
G01X189384Y15681D03*
G54D17*
G01X189384Y5521D03*
G54D16*
G01X194464Y15681D03*
G54D17*
G01X194464Y5521D03*
G54D16*
G01X213514Y15681D03*
G54D17*
G01X213514Y5521D03*
G54D16*
G01X235104Y15681D03*
G54D17*
G01X235104Y5521D03*
G54D16*
G01X44604Y34731D03*
G54D17*
G01X44604Y24571D03*
G54D16*
G01X254154Y15681D03*
G54D17*
G01X254154Y5521D03*
G54D16*
G01X167794Y13141D03*
G54D17*
G01X167794Y2981D03*
G54D13*
G01X95864Y17951D03*
G01X93864Y17951D03*
G01X93864Y15951D03*
G01X91864Y17951D03*
G01X91864Y15951D03*
G01X89864Y17951D03*
G36*
G01X88964Y16851D02*
G01X88964Y15051D01*
G01X90764Y15051D01*
G01X90764Y16851D01*
G01X88964Y16851D01*
G37*
G54D11*
G01X99214Y22031D03*
M00*
M02*
